<svg id="Слой_1" data-name="Слой 1" xmlns="http://www.w3.org/2000/svg" xmlns:xlink="http://www.w3.org/1999/xlink" viewBox="0 0 1024 1024"><defs><style>.cls-1{fill:#fff;}.cls-2{fill:#4d4d4d;}.cls-3{fill:url(#Безымянный_градиент_43);}.cls-4{fill:url(#Безымянный_градиент_44);}</style><linearGradient id="Безымянный_градиент_43" x1="199.24" y1="422.59" x2="778.93" y2="757.27" gradientUnits="userSpaceOnUse"><stop offset="0" stop-color="#aded72"/><stop offset="1" stop-color="#14a86d"/></linearGradient><linearGradient id="Безымянный_градиент_44" x1="318.69" y1="283.12" x2="705.31" y2="669.73" gradientUnits="userSpaceOnUse"><stop offset="0" stop-color="#aded72"/><stop offset="0.85" stop-color="#14a86d"/></linearGradient></defs><rect class="cls-1" width="1024" height="1024" rx="512"/><rect class="cls-2" x="579.44" y="206.18" width="55.46" height="273.53" rx="10" transform="translate(-90.13 350.03) rotate(-30)"/><rect class="cls-2" x="389.1" y="206.18" width="55.46" height="273.53" rx="10" transform="translate(606.34 848.86) rotate(-150)"/><path class="cls-3" d="M737.6,808.71H286.4c-10.92-.68-19.23-10-22.17-20q-44-158.37-88.09-316.73c-3.36-11.69,6.78-20.31,17.84-20H830c11.06-.31,21.2,8.31,17.84,20q-44.05,158.37-88.09,316.73C756.83,798.69,748.52,808,737.6,808.71Z" transform="translate(0 0.5)"/><path class="cls-1" d="M364.54,757.34H326.72c-4.85,0-9.73-4.48-10.89-10L266.45,512.71c-1.16-5.52,2.92-10,9.11-10h48.26c6.2,0,11.89,4.48,12.72,10Q354.2,630,371.83,747.34C372.66,752.86,369.39,757.34,364.54,757.34Z" transform="translate(0 0.5)"/><path class="cls-1" d="M475.33,757.34H437.52c-4.86,0-9.2-4.48-9.7-10L406.64,512.71c-.5-5.52,4.12-10,10.31-10h48.26c6.2,0,11.35,4.48,11.52,10q3.54,117.31,7.09,234.63C484,752.86,480.19,757.34,475.33,757.34Z" transform="translate(0 0.5)"/><path class="cls-1" d="M586.13,757.34H548.31c-4.85,0-8.65-4.48-8.49-10q3.49-117.32,7-234.63c.17-5.52,5.32-10,11.52-10H606.6c6.19,0,10.81,4.48,10.31,10L595.82,747.34C595.32,752.86,591,757.34,586.13,757.34Z" transform="translate(0 0.5)"/><path class="cls-1" d="M696.92,757.34H659.11c-4.86,0-8.12-4.48-7.29-10L687,512.71c.82-5.52,6.52-10,12.71-10H748c6.2,0,10.28,4.48,9.12,10L707.81,747.34C706.65,752.86,701.78,757.34,696.92,757.34Z" transform="translate(0 0.5)"/><rect class="cls-4" x="152.75" y="437.35" width="718.5" height="78.15" rx="20"/></svg>